<svg id="svg" version="1.1" xmlns="http://www.w3.org/2000/svg" xmlns:xlink="http://www.w3.org/1999/xlink" width="400" height="359.05511811023626" viewBox="0, 0, 400,359.05511811023626"><g id="svgg"><path id="path0" d="M205.956 32.032 C 205.248 35.482,205.711 38.143,206.793 36.839 C 207.139 36.423,207.198 35.645,207.016 33.938 C 206.757 31.518,206.249 30.605,205.956 32.032 M205.254 60.675 C 204.734 61.460,204.309 62.203,204.309 62.325 C 204.309 62.447,203.972 63.019,203.560 63.597 C 202.691 64.818,202.853 66.800,203.996 68.934 C 204.809 70.449,204.840 71.425,204.129 73.125 C 203.803 73.906,203.591 75.546,203.591 77.285 C 203.591 79.060,203.360 80.803,202.987 81.854 C 202.399 83.511,202.404 83.591,203.195 85.109 C 204.118 86.881,203.833 88.914,202.365 91.023 C 200.265 94.042,201.617 100.457,205.078 103.889 L 206.465 105.264 207.811 104.458 C 209.977 103.160,210.390 102.676,210.955 100.774 C 211.804 97.916,211.648 93.440,210.578 89.931 C 209.693 87.029,209.683 86.887,210.247 85.162 C 210.803 83.461,210.797 83.323,210.091 81.939 C 209.457 80.697,209.385 80.089,209.576 77.608 C 209.768 75.115,209.690 74.470,209.004 72.874 L 208.209 71.027 208.957 68.566 C 209.368 67.212,209.864 66.006,210.059 65.886 C 210.829 65.409,210.157 63.921,207.809 60.902 C 207.365 60.332,206.948 59.726,206.882 59.556 C 206.648 58.949,206.186 59.266,205.254 60.675 M211.659 112.248 C 210.720 113.054,209.992 113.304,209.156 113.106 C 206.985 112.591,199.963 112.910,199.385 113.550 C 198.128 114.941,196.629 115.750,193.221 116.875 C 190.150 117.888,189.754 118.116,189.657 118.927 C 189.553 119.794,189.414 119.848,186.785 120.037 C 183.717 120.258,179.132 120.928,178.867 121.193 C 178.404 121.656,179.489 121.783,183.622 121.748 C 188.703 121.705,188.928 121.659,189.415 120.553 C 189.700 119.907,190.107 119.736,191.562 119.652 C 192.549 119.596,195.135 119.293,197.307 118.979 C 206.463 117.658,220.470 118.688,221.375 120.749 C 221.795 121.708,226.492 122.355,229.922 121.926 C 232.516 121.602,232.506 121.189,229.892 120.682 C 223.360 119.416,223.028 119.313,221.928 118.213 C 221.208 117.493,220.313 117.037,219.305 116.876 C 218.016 116.671,217.370 116.218,215.216 114.011 L 212.658 111.389 211.659 112.248 M170.362 127.050 L 169.097 127.555 170.251 128.405 C 170.885 128.873,172.152 129.356,173.067 129.477 C 173.982 129.598,175.111 129.985,175.577 130.336 L 176.424 130.975 174.953 131.224 C 169.848 132.087,165.288 131.956,163.359 130.892 C 161.907 130.091,161.538 130.603,162.067 132.686 C 162.538 134.538,164.248 135.987,168.043 137.749 C 168.734 138.069,169.704 138.533,170.197 138.778 C 170.691 139.024,171.739 139.433,172.526 139.686 C 173.313 139.940,175.247 141.197,176.823 142.480 C 178.399 143.763,180.391 145.123,181.248 145.503 C 182.106 145.882,182.894 146.419,183.001 146.696 C 183.256 147.362,186.547 149.372,187.382 149.372 C 189.470 149.372,190.389 146.553,190.537 139.694 L 190.664 133.772 191.650 133.256 C 192.192 132.972,193.363 132.745,194.253 132.752 C 197.400 132.777,218.880 132.742,220.826 132.709 C 223.595 132.661,226.978 133.856,225.484 134.354 C 224.153 134.798,223.526 144.920,224.623 148.273 L 225.189 150.002 226.474 149.712 C 227.702 149.435,229.085 148.281,233.235 144.072 C 234.633 142.654,234.976 142.500,237.928 141.967 C 241.389 141.342,241.853 141.045,243.193 138.600 C 244.266 136.640,245.397 136.032,248.499 135.748 C 250.922 135.526,253.648 134.104,256.510 131.570 L 257.544 130.654 256.691 130.049 C 255.578 129.259,253.935 128.953,250.628 128.919 C 249.147 128.903,246.400 128.677,244.524 128.416 C 242.057 128.073,240.070 128.030,237.343 128.261 C 229.622 128.915,200.352 128.990,193.537 128.374 C 187.671 127.844,183.046 127.455,174.951 126.810 C 172.429 126.610,171.321 126.668,170.362 127.050 M173.991 155.797 C 173.653 156.344,174.911 156.591,176.633 156.316 C 178.209 156.064,178.232 156.043,177.199 155.807 C 175.591 155.439,174.215 155.435,173.991 155.797 M180.457 157.835 C 178.910 159.382,179.479 159.660,185.885 160.487 C 188.810 160.865,192.334 161.516,193.716 161.933 C 199.084 163.554,221.123 163.322,226.750 161.585 C 227.935 161.219,230.844 160.728,233.214 160.493 C 235.583 160.258,237.894 159.890,238.348 159.675 L 239.174 159.285 238.169 158.746 C 237.313 158.288,233.092 158.167,209.889 157.939 C 194.888 157.791,182.256 157.580,181.818 157.470 C 181.341 157.351,180.795 157.497,180.457 157.835 M240.277 161.763 C 239.468 162.791,237.103 163.734,235.332 163.734 C 233.186 163.734,232.219 167.326,233.777 169.514 C 234.735 170.860,234.981 170.831,236.563 169.185 C 237.865 167.831,239.027 167.324,242.512 166.591 C 244.392 166.195,248.591 162.596,247.901 161.972 C 246.369 160.586,241.312 160.447,240.277 161.763 M168.133 161.437 C 166.949 161.972,167.901 163.395,169.880 164.048 C 170.583 164.280,171.681 164.855,172.318 165.325 C 172.956 165.796,173.992 166.394,174.620 166.654 C 175.249 166.914,176.059 167.374,176.422 167.675 C 176.784 167.976,177.420 168.510,177.834 168.861 C 178.249 169.212,179.003 169.589,179.510 169.700 C 180.016 169.811,180.590 169.940,180.784 169.987 C 181.377 170.132,182.047 168.409,182.047 166.738 C 182.047 164.943,181.891 164.826,178.299 163.918 C 177.126 163.622,175.551 162.953,174.799 162.432 C 173.451 161.497,169.352 160.885,168.133 161.437 M203.109 170.639 C 202.039 171.439,201.643 174.428,202.415 175.865 C 203.964 178.746,212.329 179.037,213.444 176.248 C 214.264 174.199,214.177 171.902,213.248 171.061 C 212.253 170.160,204.196 169.825,203.109 170.639 M204.401 178.806 C 203.760 178.958,202.968 179.305,202.641 179.577 C 201.846 180.238,185.705 180.596,181.329 180.050 C 176.056 179.392,173.873 180.238,174.138 182.836 C 174.357 184.978,174.874 185.328,175.967 184.071 C 177.310 182.526,179.247 182.314,188.193 182.734 C 196.985 183.146,222.488 182.933,229.084 182.393 C 238.128 181.651,240.214 181.876,240.851 183.662 C 241.216 184.684,241.237 184.643,241.264 182.868 L 241.293 180.997 239.767 180.584 C 237.323 179.921,234.561 179.633,233.948 179.977 C 231.934 181.104,214.276 180.487,213.279 179.255 C 212.589 178.403,207.237 178.133,204.401 178.806 M191.382 190.189 C 187.157 190.611,188.851 191.075,197.127 191.763 C 205.450 192.455,218.536 191.595,215.260 190.572 C 214.145 190.224,194.237 189.904,191.382 190.189 M147.307 193.794 C 147.850 193.876,148.739 193.876,149.282 193.794 C 149.825 193.712,149.381 193.644,148.294 193.644 C 147.208 193.644,146.764 193.712,147.307 193.794 M153.411 195.820 C 152.201 196.420,152.435 197.068,153.950 197.312 C 154.690 197.432,156.023 197.671,156.912 197.844 C 157.801 198.017,160.056 198.258,161.924 198.380 C 164.189 198.527,166.043 198.881,167.490 199.443 C 168.683 199.906,170.305 200.381,171.095 200.498 C 171.885 200.615,173.662 200.949,175.045 201.240 C 176.427 201.531,178.285 201.777,179.174 201.786 C 180.063 201.795,181.531 202.028,182.436 202.303 C 183.667 202.676,184.526 202.714,185.847 202.453 C 187.031 202.219,190.394 202.247,196.060 202.540 C 214.616 203.499,250.129 201.742,251.583 199.792 C 252.304 198.826,259.949 197.433,266.376 197.097 C 266.700 197.080,266.481 196.905,265.889 196.708 C 264.228 196.157,247.642 196.304,240.395 196.933 C 238.323 197.113,236.210 197.065,234.508 196.800 C 231.798 196.378,229.115 196.843,227.682 197.983 C 227.324 198.268,221.149 198.384,206.318 198.384 L 185.458 198.384 183.483 197.279 L 181.508 196.173 170.197 195.746 C 157.187 195.254,154.532 195.265,153.411 195.820 M275.130 199.312 C 274.684 199.482,273.966 199.949,273.537 200.349 C 273.107 200.750,272.664 201.081,272.553 201.085 C 272.443 201.089,270.413 201.345,268.043 201.655 C 265.673 201.964,262.843 202.327,261.753 202.460 C 260.629 202.598,259.153 203.090,258.342 203.596 L 256.912 204.488 245.422 204.519 C 230.357 204.559,231.709 203.828,231.367 212.121 C 231.089 218.866,231.193 219.440,232.878 220.481 C 235.437 222.063,237.407 221.166,240.140 217.174 C 241.557 215.104,242.568 214.746,246.921 214.777 C 250.478 214.802,250.850 214.640,252.243 212.463 C 253.075 211.163,256.566 208.839,257.171 209.182 C 257.423 209.325,257.991 209.767,258.432 210.164 C 260.433 211.965,264.282 210.617,267.712 206.914 C 269.091 205.426,269.327 205.315,271.810 205.004 C 275.074 204.594,275.977 204.028,276.503 202.066 C 276.729 201.226,276.974 200.439,277.048 200.317 C 277.378 199.775,275.921 199.011,275.130 199.312 M140.664 199.521 C 139.479 199.722,139.430 200.024,140.433 200.932 C 140.850 201.308,141.434 202.226,141.733 202.973 C 142.402 204.643,143.079 205.027,145.354 205.027 C 147.733 205.027,149.231 205.721,151.167 207.719 C 153.832 210.471,156.020 211.239,157.810 210.054 C 159.863 208.694,162.248 209.042,163.736 210.918 C 166.190 214.012,167.991 214.847,171.602 214.564 C 174.883 214.307,176.661 214.948,176.661 216.388 C 176.661 218.544,179.466 220.108,183.336 220.108 C 186.564 220.108,186.304 220.804,186.020 212.926 C 185.738 205.085,185.248 203.325,183.542 204.023 C 181.787 204.741,164.259 204.555,162.118 203.796 C 159.670 202.928,155.616 202.168,151.526 201.812 C 147.858 201.492,147.198 201.320,145.722 200.298 C 144.718 199.603,142.339 199.238,140.664 199.521 M191.108 220.665 C 189.870 220.940,188.503 221.356,188.069 221.588 L 187.280 222.010 188.164 222.395 C 189.422 222.942,218.605 222.946,219.530 222.399 C 220.473 221.841,217.733 221.578,205.027 221.004 C 199.399 220.750,194.470 220.457,194.075 220.353 C 193.680 220.249,192.345 220.389,191.108 220.665 M154.219 227.158 C 150.263 227.731,150.271 231.964,154.232 233.592 C 155.015 233.913,156.382 234.943,157.271 235.881 C 159.623 238.362,160.931 239.143,163.093 239.356 C 165.998 239.643,166.469 239.787,167.597 240.736 L 168.642 241.616 169.403 239.874 C 170.198 238.052,170.478 236.835,170.527 234.974 C 170.580 232.976,171.624 232.221,174.038 232.435 C 182.720 233.203,188.289 233.792,190.126 234.136 C 191.311 234.358,193.007 234.676,193.896 234.842 C 194.785 235.009,196.643 235.157,198.025 235.171 C 199.408 235.185,201.403 235.427,202.459 235.708 C 205.893 236.622,209.236 236.484,223.698 234.827 C 225.180 234.658,227.926 234.278,229.803 233.983 C 243.726 231.795,245.651 232.182,246.012 237.245 C 246.358 242.114,246.760 242.729,249.591 242.729 C 250.663 242.729,250.918 242.519,253.321 239.653 C 255.099 237.532,256.125 236.612,257.517 235.887 C 258.244 235.508,259.052 234.909,259.312 234.555 C 259.572 234.202,260.561 233.284,261.510 232.516 C 263.161 231.180,264.489 229.007,264.070 228.328 C 263.788 227.872,256.264 227.929,255.050 228.397 C 248.739 230.829,183.742 230.941,174.506 228.535 C 171.045 227.634,157.353 226.704,154.219 227.158 M202.513 238.775 C 202.513 238.975,202.293 239.138,202.023 239.138 C 200.201 239.138,199.553 240.546,199.725 244.133 C 200.051 250.977,199.089 251.728,190.101 251.649 C 182.809 251.586,173.704 251.987,172.531 252.424 C 171.587 252.775,170.603 252.378,169.380 251.152 L 168.383 250.152 166.866 250.878 C 166.032 251.277,164.785 251.815,164.093 252.074 C 161.477 253.053,161.437 253.289,163.582 255.082 L 165.226 256.455 166.219 255.503 L 167.213 254.551 202.727 254.365 C 231.687 254.213,248.488 253.873,243.088 253.547 C 242.594 253.517,241.382 253.232,240.395 252.913 C 239.040 252.476,236.661 252.297,230.700 252.184 C 221.414 252.008,221.730 252.056,220.054 250.550 C 218.163 248.849,217.953 248.211,217.953 244.161 C 217.953 240.633,217.921 240.487,216.926 239.492 L 215.898 238.464 209.206 238.438 C 204.909 238.420,202.513 238.541,202.513 238.775 M252.450 253.092 C 252.171 253.615,252.272 253.930,252.916 254.534 L 253.739 255.308 254.121 254.471 C 254.833 252.907,253.249 251.599,252.450 253.092 M250.118 261.562 C 249.676 263.207,249.856 263.555,251.146 263.555 C 252.826 263.555,252.902 263.209,251.504 261.921 C 250.374 260.881,250.305 260.863,250.118 261.562 M185.560 261.758 C 183.253 262.054,181.247 262.773,181.516 263.208 C 182.226 264.357,203.968 264.735,219.749 263.873 C 223.797 263.651,228.218 263.418,229.573 263.353 C 230.928 263.289,232.098 263.174,232.174 263.098 C 232.354 262.918,218.750 262.179,207.361 261.750 C 197.186 261.367,188.584 261.370,185.560 261.758 M254.309 264.844 C 252.730 265.572,255.655 267.485,258.396 267.516 C 258.962 267.523,260.314 267.841,261.400 268.223 C 262.487 268.605,263.891 268.923,264.521 268.929 C 265.151 268.935,265.754 269.081,265.860 269.253 C 265.966 269.424,266.719 269.671,267.534 269.802 C 270.712 270.310,272.423 272.165,270.438 272.951 C 264.953 275.123,129.624 275.543,126.158 273.399 C 125.613 273.061,125.315 272.406,125.145 271.173 C 124.791 268.594,123.712 268.043,119.015 268.043 C 116.092 268.043,115.213 268.171,114.380 268.717 L 113.352 269.391 115.156 270.154 C 116.149 270.573,117.683 271.582,118.565 272.395 C 119.447 273.208,120.770 274.071,121.506 274.314 C 122.242 274.557,123.245 275.104,123.734 275.529 C 125.229 276.827,129.411 281.073,129.982 281.872 C 130.728 282.917,132.873 283.320,136.313 283.063 C 140.137 282.777,140.798 282.978,141.778 284.722 C 143.574 287.916,147.989 289.553,150.090 287.803 C 151.687 286.473,152.990 286.475,154.213 287.810 C 156.083 289.852,158.706 290.679,160.410 289.766 C 162.640 288.571,164.925 289.017,167.081 291.068 C 168.381 292.305,170.197 292.377,170.197 291.192 C 170.197 291.056,170.580 290.380,171.048 289.690 C 171.705 288.722,171.959 287.717,172.162 285.278 C 172.386 282.585,172.557 281.988,173.323 281.223 L 174.220 280.325 185.584 280.577 C 191.834 280.715,206.888 280.827,219.037 280.826 C 231.185 280.825,241.302 280.937,241.518 281.076 C 242.447 281.673,243.186 283.962,243.440 287.030 C 243.819 291.608,247.150 294.400,248.533 291.299 C 248.600 291.147,249.093 290.637,249.628 290.166 L 250.601 289.308 253.966 289.942 L 257.330 290.575 259.027 289.628 C 259.960 289.107,261.126 288.278,261.617 287.787 C 262.735 286.669,263.410 286.665,265.029 287.765 C 267.105 289.176,268.989 288.729,271.211 286.297 C 273.334 283.974,274.945 283.124,276.571 283.470 C 281.340 284.484,282.013 284.241,286.894 279.731 C 290.951 275.983,293.102 274.673,295.871 274.265 C 303.716 273.112,304.368 272.907,303.687 271.810 C 302.972 270.658,301.120 270.373,292.982 270.161 C 287.793 270.025,284.933 269.801,283.943 269.452 C 283.049 269.136,281.075 268.941,278.782 268.941 C 276.504 268.941,274.476 268.741,273.531 268.424 C 272.587 268.107,271.534 268.003,270.804 268.155 C 268.302 268.678,266.427 268.262,266.427 267.183 C 266.427 265.633,256.676 263.751,254.309 264.844 M178.636 294.388 L 174.686 294.614 177.105 295.418 C 181.366 296.834,183.904 297.044,191.478 296.606 C 195.276 296.386,201.293 296.044,204.847 295.846 C 208.402 295.648,212.765 295.270,214.542 295.006 L 217.774 294.525 210.920 294.480 C 207.151 294.455,199.233 294.373,193.326 294.298 C 187.419 294.223,180.808 294.263,178.636 294.388 M262.118 300.898 C 262.118 301.095,262.530 301.257,263.034 301.257 C 264.410 301.257,266.030 302.236,266.276 303.218 C 266.867 305.572,265.006 305.884,243.627 307.014 C 240.269 307.191,236.151 307.500,234.476 307.701 C 232.800 307.902,228.195 308.150,224.242 308.252 C 220.290 308.353,214.794 308.515,212.029 308.611 C 207.674 308.762,161.770 308.967,160.054 308.843 C 159.680 308.816,159.425 308.506,159.425 308.079 C 159.425 307.684,159.264 307.361,159.066 307.361 C 158.869 307.361,158.707 308.065,158.707 308.926 L 158.707 310.491 165.619 310.716 C 169.421 310.840,177.298 311.035,183.124 311.148 C 189.068 311.263,195.134 311.568,196.948 311.841 C 202.009 312.605,218.629 312.893,220.349 312.247 C 221.414 311.847,224.804 311.682,235.418 311.515 C 242.950 311.396,251.638 311.139,254.725 310.942 C 262.446 310.452,262.827 310.743,262.849 317.162 C 262.856 319.177,263.096 321.795,263.382 322.980 C 263.669 324.165,263.906 326.266,263.911 327.648 C 263.916 329.031,264.093 331.212,264.306 332.496 C 264.518 333.779,264.830 335.961,264.999 337.343 C 265.168 338.725,265.511 340.826,265.761 342.011 L 266.216 344.165 266.460 342.370 C 266.594 341.382,266.828 336.454,266.980 331.418 C 267.300 320.814,267.546 319.963,270.514 319.179 C 271.328 318.964,272.684 318.479,273.528 318.101 C 274.373 317.724,275.238 317.415,275.451 317.415 C 275.664 317.415,276.670 316.993,277.686 316.478 C 279.297 315.662,280.052 315.529,283.591 315.437 C 288.514 315.310,289.288 315.017,291.370 312.488 C 294.170 309.087,292.956 307.819,286.825 307.741 C 284.217 307.708,284.489 307.159,287.356 306.671 C 290.086 306.206,294.794 304.614,294.794 304.156 C 294.794 303.718,289.124 303.002,281.562 302.484 C 274.324 301.989,270.076 301.494,267.864 300.887 C 266.202 300.432,262.118 300.439,262.118 300.898 M132.216 302.893 C 131.171 303.625,131.209 304.062,132.464 305.768 C 134.057 307.935,133.402 308.599,129.595 308.674 C 125.425 308.756,124.789 309.534,126.823 312.065 C 128.895 314.644,129.789 314.975,135.412 315.250 C 139.697 315.460,140.555 315.603,141.433 316.252 C 141.996 316.668,143.326 317.262,144.388 317.572 C 146.514 318.192,148.654 319.363,148.654 319.907 C 148.654 320.099,149.032 320.813,149.495 321.495 C 150.247 322.604,150.360 323.282,150.558 327.885 C 150.908 336.024,152.357 345.414,153.067 344.145 C 153.595 343.202,154.071 330.469,153.956 320.407 C 153.861 312.211,153.872 312.076,154.668 311.227 C 155.642 310.190,155.791 307.918,154.908 307.579 C 153.869 307.180,147.275 307.336,147.009 307.766 C 146.838 308.043,146.655 307.986,146.432 307.587 C 146.188 307.151,145.572 307.002,144.013 307.002 C 140.305 307.002,139.696 306.749,138.907 304.885 C 137.820 302.313,134.468 301.315,132.216 302.893 M279.519 310.132 C 280.192 310.508,278.979 310.688,272.407 311.183 C 269.060 311.435,268.094 311.074,269.045 309.928 C 269.537 309.336,278.404 309.508,279.519 310.132 M202.513 314.542 C 198.580 314.749,197.125 315.416,197.131 317.007 C 197.143 319.843,198.003 321.690,199.771 322.680 C 200.380 323.020,201.057 325.245,202.196 330.643 C 202.577 332.452,202.863 333.017,203.582 333.392 C 204.081 333.652,204.961 334.273,205.540 334.772 C 206.118 335.272,207.572 335.919,208.771 336.211 C 215.622 337.878,215.857 337.994,216.844 340.227 C 217.507 341.725,218.789 342.596,219.389 341.957 C 221.092 340.142,221.191 339.328,221.141 327.534 L 221.094 316.285 220.193 315.214 L 219.292 314.144 212.609 314.253 C 208.932 314.313,204.390 314.443,202.513 314.542 M264.785 345.703 C 262.962 346.368,259.278 346.474,231.957 346.647 C 209.099 346.792,185.885 347.313,173.609 347.958 C 169.856 348.154,162.585 348.544,157.451 348.823 C 152.316 349.101,140.925 349.577,132.136 349.880 C 115.729 350.446,109.992 350.829,104.238 351.745 C 98.660 352.633,88.595 353.517,79.982 353.876 C 76.674 354.014,73.968 354.260,73.968 354.423 C 73.968 355.367,365.594 356.444,370.916 355.520 C 375.705 354.689,376.227 354.539,375.224 354.285 C 374.284 354.046,367.172 353.264,358.348 352.430 C 355.485 352.160,352.334 351.775,351.346 351.575 C 347.458 350.790,343.779 350.429,334.470 349.920 C 325.083 349.407,319.596 348.957,314.363 348.272 C 312.980 348.092,307.567 347.779,302.334 347.577 C 297.101 347.375,288.779 347.049,283.842 346.853 C 278.905 346.656,273.525 346.496,271.886 346.497 C 269.733 346.499,268.530 346.317,267.550 345.844 C 266.324 345.252,266.059 345.238,264.785 345.703 " stroke="none" fill="#25191a" fill-rule="evenodd"></path><path id="path1" d="M205.226 29.048 C 204.098 31.228,204.077 36.654,205.191 37.977 C 207.098 40.244,208.467 38.121,208.085 33.488 C 207.675 28.502,206.473 26.635,205.226 29.048 M207.016 33.938 C 207.198 35.645,207.139 36.423,206.793 36.839 C 205.711 38.143,205.248 35.482,205.956 32.032 C 206.249 30.605,206.757 31.518,207.016 33.938 M205.736 55.140 C 205.544 55.647,205.386 56.309,205.386 56.612 C 205.386 57.829,204.216 59.540,202.943 60.184 C 202.213 60.553,201.373 61.035,201.077 61.255 C 200.781 61.474,196.984 61.934,192.639 62.276 C 186.097 62.791,183.907 63.114,179.892 64.157 C 177.226 64.850,173.785 65.724,172.246 66.100 C 170.706 66.476,168.758 67.097,167.917 67.480 C 167.075 67.864,165.588 68.371,164.612 68.608 C 163.635 68.845,162.683 69.178,162.496 69.349 C 162.308 69.519,161.947 69.659,161.695 69.659 C 161.442 69.659,159.898 70.275,158.265 71.028 C 156.632 71.781,154.610 72.615,153.770 72.881 C 152.931 73.147,152.244 73.507,152.244 73.681 C 152.244 74.024,148.026 76.121,147.335 76.122 C 147.103 76.122,146.437 76.523,145.855 77.013 C 145.273 77.502,144.038 78.228,143.112 78.625 C 142.185 79.023,141.206 79.551,140.936 79.799 C 140.666 80.048,139.608 80.817,138.584 81.508 C 137.561 82.199,136.456 83.010,136.128 83.311 C 135.801 83.611,134.788 84.293,133.877 84.827 C 132.966 85.361,132.129 86.038,132.016 86.331 C 131.904 86.624,131.129 87.294,130.295 87.821 C 126.422 90.266,116.662 99.753,112.939 104.692 C 112.354 105.469,111.425 106.589,110.876 107.181 C 110.327 107.774,109.877 108.374,109.876 108.515 C 109.875 108.657,109.349 109.368,108.707 110.096 C 108.066 110.825,107.217 111.947,106.822 112.591 C 106.427 113.234,105.385 114.947,104.506 116.396 C 103.627 117.845,102.551 119.471,102.113 120.009 C 101.676 120.547,101.118 121.595,100.873 122.338 C 100.627 123.081,99.838 124.660,99.119 125.848 C 98.400 127.036,97.599 128.734,97.339 129.623 C 97.079 130.512,96.549 131.686,96.159 132.234 C 95.770 132.781,95.123 134.397,94.722 135.824 C 94.320 137.252,93.789 138.824,93.541 139.318 C 92.577 141.243,91.572 144.674,91.018 147.935 C 90.700 149.811,90.215 151.692,89.941 152.114 C 87.658 155.637,87.412 188.549,89.620 195.169 C 89.886 195.968,90.437 198.392,90.844 200.555 C 91.251 202.718,91.720 204.811,91.886 205.206 C 92.052 205.601,92.587 206.813,93.075 207.899 C 93.563 208.986,94.250 210.974,94.602 212.318 C 94.955 213.661,95.440 214.957,95.680 215.198 C 95.920 215.438,96.478 216.600,96.919 217.780 C 97.961 220.565,101.187 227.165,102.181 228.546 C 102.607 229.138,103.422 230.443,103.991 231.445 C 105.341 233.820,107.680 237.330,108.496 238.206 C 108.851 238.587,109.584 239.558,110.125 240.365 C 110.665 241.171,111.679 242.491,112.376 243.296 C 113.074 244.102,114.372 245.621,115.260 246.672 C 116.149 247.723,117.136 248.824,117.454 249.118 C 118.848 250.409,121.999 253.507,123.050 254.620 C 123.681 255.288,124.812 256.350,125.564 256.980 C 126.315 257.609,127.576 258.668,128.366 259.333 C 129.156 259.997,130.480 261.027,131.307 261.621 C 134.060 263.597,136.180 267.745,134.518 267.902 C 131.432 268.194,127.452 267.982,126.212 267.459 C 125.225 267.043,123.259 266.788,119.928 266.642 C 117.262 266.526,114.128 266.324,112.963 266.194 L 110.846 265.957 111.042 267.696 C 111.260 269.637,111.778 270.185,113.945 270.769 C 115.446 271.173,115.867 271.449,117.312 272.974 C 117.823 273.514,118.943 274.296,119.801 274.711 C 120.659 275.126,121.463 275.632,121.588 275.835 C 121.714 276.038,122.484 276.499,123.301 276.860 C 124.267 277.288,125.659 278.524,127.289 280.405 C 130.489 284.097,131.482 284.537,135.824 284.193 C 139.365 283.913,140.915 284.308,141.264 285.578 C 141.648 286.974,143.501 288.619,145.849 289.649 C 146.929 290.123,149.178 289.672,151.612 288.493 L 152.954 287.842 154.125 289.138 C 155.881 291.080,158.653 291.787,160.607 290.791 C 162.432 289.859,164.843 290.342,166.303 291.930 C 169.180 295.060,172.446 292.854,173.079 287.352 C 173.841 280.734,173.386 281.057,181.349 281.479 C 197.722 282.347,219.084 282.700,229.676 282.278 C 242.508 281.767,242.399 281.724,242.307 287.318 C 242.213 292.999,247.786 296.384,249.558 291.723 C 250.001 290.559,252.981 290.473,255.117 291.562 C 256.629 292.333,257.451 292.473,257.451 291.961 C 257.451 291.785,258.218 291.285,259.156 290.850 C 260.094 290.415,261.381 289.563,262.016 288.957 L 263.170 287.856 264.548 288.811 C 266.907 290.445,269.066 290.198,271.102 288.061 C 274.652 284.334,275.101 284.113,277.754 284.781 C 281.197 285.648,283.455 284.649,288.037 280.232 C 289.482 278.839,291.513 277.238,292.549 276.674 C 293.586 276.110,294.434 275.534,294.434 275.393 C 294.434 275.253,295.606 275.028,297.038 274.893 C 305.076 274.137,308.499 273.219,309.227 271.622 C 309.446 271.140,310.022 270.486,310.507 270.169 C 312.312 268.986,311.008 268.806,298.653 268.532 C 285.547 268.242,278.672 267.714,277.023 266.869 L 275.950 266.320 277.023 265.481 C 277.614 265.020,279.212 263.831,280.576 262.838 C 283.904 260.414,291.149 253.894,295.092 249.775 C 296.014 248.812,297.172 247.609,297.666 247.101 C 300.883 243.792,307.964 234.210,309.189 231.508 C 309.615 230.570,310.100 229.803,310.268 229.803 C 310.436 229.803,311.238 228.469,312.049 226.840 C 312.861 225.211,313.727 223.636,313.974 223.339 C 314.221 223.043,314.792 221.750,315.243 220.467 C 315.693 219.183,316.290 217.873,316.568 217.556 C 316.846 217.239,317.644 215.300,318.341 213.247 C 319.038 211.195,319.841 209.158,320.126 208.722 C 320.411 208.285,321.036 206.185,321.516 204.054 C 321.995 201.923,322.783 198.564,323.265 196.589 C 324.785 190.374,325.037 187.883,325.211 177.379 C 325.422 164.586,324.548 154.531,322.838 150.090 C 322.420 149.004,321.828 146.661,321.523 144.883 C 321.218 143.106,320.595 140.925,320.140 140.036 C 319.685 139.147,318.948 137.208,318.503 135.727 C 318.058 134.246,317.313 132.369,316.849 131.556 C 316.384 130.743,315.656 129.146,315.230 128.009 C 314.804 126.871,314.212 125.655,313.915 125.308 C 313.617 124.960,312.891 123.567,312.301 122.212 C 311.711 120.857,310.929 119.421,310.563 119.020 C 310.198 118.620,309.530 117.625,309.079 116.809 C 307.756 114.416,304.397 109.515,304.079 109.515 C 303.919 109.515,303.501 108.960,303.150 108.281 C 301.499 105.081,288.044 91.156,283.842 88.298 C 282.657 87.492,281.445 86.559,281.149 86.225 C 280.853 85.891,280.004 85.245,279.264 84.790 C 278.523 84.335,277.917 83.829,277.917 83.665 C 277.917 83.501,277.156 82.999,276.225 82.548 C 275.294 82.097,274.158 81.396,273.702 80.990 C 272.685 80.086,268.745 77.781,264.551 75.638 C 262.828 74.757,261.160 73.779,260.845 73.464 C 260.530 73.148,260.001 72.890,259.669 72.890 C 259.338 72.889,257.800 72.237,256.252 71.440 C 254.704 70.643,251.957 69.572,250.148 69.060 C 248.339 68.548,246.616 67.928,246.320 67.682 C 245.611 67.095,243.804 66.553,240.934 66.066 C 239.650 65.849,237.481 65.275,236.114 64.792 C 232.701 63.586,227.244 62.772,215.832 61.769 C 213.777 61.588,212.000 61.291,211.883 61.109 C 211.765 60.928,211.266 60.658,210.772 60.511 C 209.188 60.037,207.931 58.510,207.313 56.306 C 206.673 54.024,206.273 53.729,205.736 55.140 M206.882 59.556 C 206.948 59.726,207.365 60.332,207.809 60.902 C 210.157 63.921,210.829 65.409,210.059 65.886 C 209.864 66.006,209.368 67.212,208.957 68.566 L 208.209 71.027 209.004 72.874 C 209.690 74.470,209.768 75.115,209.576 77.608 C 209.385 80.089,209.457 80.697,210.091 81.939 C 210.797 83.323,210.803 83.461,210.247 85.162 C 209.683 86.887,209.693 87.029,210.578 89.931 C 211.648 93.440,211.804 97.916,210.955 100.774 C 210.390 102.676,209.977 103.160,207.811 104.458 L 206.465 105.264 205.078 103.889 C 201.617 100.457,200.265 94.042,202.365 91.023 C 203.833 88.914,204.118 86.881,203.195 85.109 C 202.404 83.591,202.399 83.511,202.987 81.854 C 203.360 80.803,203.591 79.060,203.591 77.285 C 203.591 75.546,203.803 73.906,204.129 73.125 C 204.840 71.425,204.809 70.449,203.996 68.934 C 202.853 66.800,202.691 64.818,203.560 63.597 C 203.972 63.019,204.309 62.447,204.309 62.325 C 204.309 61.334,206.612 58.856,206.882 59.556 M219.305 116.876 C 220.313 117.037,221.208 117.493,221.928 118.213 C 223.028 119.313,223.360 119.416,229.892 120.682 C 232.506 121.189,232.516 121.602,229.922 121.926 C 226.492 122.355,221.795 121.708,221.375 120.749 C 220.470 118.688,206.463 117.658,197.307 118.979 C 195.135 119.293,192.549 119.596,191.562 119.652 C 190.107 119.736,189.700 119.907,189.415 120.553 C 188.928 121.659,188.703 121.705,183.622 121.748 C 175.968 121.812,178.091 120.664,186.785 120.037 C 189.414 119.848,189.553 119.794,189.657 118.927 C 189.754 118.116,190.150 117.888,193.221 116.875 C 196.629 115.750,198.128 114.941,199.385 113.550 C 199.963 112.910,206.985 112.591,209.156 113.106 C 209.992 113.304,210.720 113.054,211.659 112.248 L 212.658 111.389 215.216 114.011 C 217.370 116.218,218.016 116.671,219.305 116.876 M215.296 120.424 C 216.303 120.693,217.862 121.343,218.761 121.869 C 219.918 122.548,221.627 123.034,224.627 123.539 C 229.672 124.388,229.513 124.281,227.693 125.599 C 226.096 126.757,225.250 126.882,215.978 127.342 C 203.065 127.983,186.801 126.864,181.879 124.995 L 180.237 124.372 182.488 123.938 C 183.727 123.700,186.285 123.351,188.173 123.162 C 190.268 122.954,192.298 122.513,193.380 122.033 C 197.937 120.008,210.320 119.099,215.296 120.424 M258.118 123.219 C 259.637 124.705,259.086 125.338,255.951 125.708 C 251.508 126.231,250.484 124.663,254.246 123.097 C 257.128 121.898,256.754 121.886,258.118 123.219 M161.580 127.137 L 163.196 127.594 161.265 127.925 C 158.695 128.366,157.743 127.979,158.553 126.823 C 158.945 126.263,159.265 126.108,159.548 126.339 C 159.777 126.527,160.691 126.886,161.580 127.137 M182.765 127.441 C 185.233 127.642,190.081 128.062,193.537 128.374 C 200.352 128.990,229.622 128.915,237.343 128.261 C 240.070 128.030,242.057 128.073,244.524 128.416 C 246.400 128.677,249.147 128.903,250.628 128.919 C 253.935 128.953,255.578 129.259,256.691 130.049 L 257.544 130.654 256.510 131.570 C 253.648 134.104,250.922 135.526,248.499 135.748 C 245.397 136.032,244.266 136.640,243.193 138.600 C 241.853 141.045,241.389 141.342,237.928 141.967 C 234.976 142.500,234.633 142.654,233.235 144.072 C 229.085 148.281,227.702 149.435,226.474 149.712 L 225.189 150.002 224.623 148.273 C 223.526 144.920,224.153 134.798,225.484 134.354 C 226.978 133.856,223.595 132.661,220.826 132.709 C 218.880 132.742,197.400 132.777,194.253 132.752 C 193.363 132.745,192.192 132.972,191.650 133.256 L 190.664 133.772 190.537 139.694 C 190.389 146.553,189.470 149.372,187.382 149.372 C 186.547 149.372,183.256 147.362,183.001 146.696 C 182.894 146.419,182.106 145.882,181.248 145.503 C 180.391 145.123,178.399 143.763,176.823 142.480 C 175.247 141.197,173.313 139.940,172.526 139.686 C 171.739 139.433,170.691 139.024,170.197 138.778 C 169.704 138.533,168.734 138.069,168.043 137.749 C 164.248 135.987,162.538 134.538,162.067 132.686 C 161.538 130.603,161.907 130.091,163.359 130.892 C 165.288 131.956,169.848 132.087,174.953 131.224 L 176.424 130.975 175.577 130.336 C 175.111 129.985,173.982 129.598,173.067 129.477 C 172.152 129.356,170.885 128.873,170.251 128.405 L 169.097 127.555 170.362 127.050 C 171.673 126.527,171.467 126.521,182.765 127.441 M200.862 134.106 C 204.200 134.391,207.028 134.568,207.146 134.499 C 207.971 134.016,222.303 133.519,222.829 133.955 C 223.342 134.381,223.379 135.236,223.150 141.496 C 222.824 150.428,223.106 151.442,226.192 152.418 C 226.674 152.571,227.321 152.976,227.628 153.318 C 227.935 153.661,228.752 154.156,229.443 154.420 C 230.135 154.684,231.163 155.176,231.728 155.514 L 232.757 156.128 230.292 156.430 C 220.435 157.639,184.201 156.478,184.201 154.954 C 184.201 154.450,182.131 153.321,181.206 153.321 C 180.902 153.321,180.553 153.160,180.431 152.962 C 180.299 152.749,180.728 152.603,181.491 152.603 C 183.312 152.603,189.157 151.249,190.332 150.555 C 191.657 149.773,191.767 149.186,192.043 141.437 C 192.293 134.386,192.501 133.565,194.030 133.580 C 194.450 133.584,197.525 133.821,200.862 134.106 M177.199 155.807 C 178.232 156.043,178.209 156.064,176.633 156.316 C 174.911 156.591,173.653 156.344,173.991 155.797 C 174.215 155.435,175.591 155.439,177.199 155.807 M169.120 156.173 C 169.120 156.795,168.488 156.910,168.040 156.369 C 167.671 155.925,167.724 155.835,168.358 155.835 C 168.777 155.835,169.120 155.987,169.120 156.173 M209.889 157.939 C 233.092 158.167,237.313 158.288,238.169 158.746 L 239.174 159.285 238.348 159.675 C 237.894 159.890,235.583 160.258,233.214 160.493 C 230.844 160.728,227.935 161.219,226.750 161.585 C 221.123 163.322,199.084 163.554,193.716 161.933 C 192.334 161.516,188.810 160.865,185.885 160.487 C 182.960 160.109,180.415 159.706,180.230 159.592 C 179.210 158.961,180.562 157.155,181.818 157.470 C 182.256 157.580,194.888 157.791,209.889 157.939 M176.059 159.039 C 176.572 159.552,174.784 159.903,172.684 159.701 C 170.713 159.511,170.355 159.323,170.751 158.684 C 171.062 158.180,175.496 158.476,176.059 159.039 M246.356 161.270 C 248.340 161.933,248.332 162.159,246.248 164.243 C 244.660 165.831,243.923 166.294,242.512 166.591 C 239.027 167.324,237.865 167.831,236.563 169.185 C 234.981 170.831,234.735 170.860,233.777 169.514 C 232.219 167.326,233.186 163.734,235.332 163.734 C 237.103 163.734,239.468 162.791,240.277 161.763 C 241.083 160.738,244.045 160.497,246.356 161.270 M174.799 162.432 C 175.551 162.953,177.126 163.622,178.299 163.918 C 181.891 164.826,182.047 164.943,182.047 166.738 C 182.047 168.409,181.377 170.132,180.784 169.987 C 180.590 169.940,180.016 169.811,179.510 169.700 C 179.003 169.589,178.249 169.212,177.834 168.861 C 177.420 168.510,176.784 167.976,176.422 167.675 C 176.059 167.374,175.249 166.914,174.620 166.654 C 173.992 166.394,172.956 165.796,172.318 165.325 C 171.681 164.855,170.583 164.280,169.880 164.048 C 167.901 163.395,166.949 161.972,168.133 161.437 C 169.352 160.885,173.451 161.497,174.799 162.432 M188.614 162.312 C 190.548 162.694,192.487 163.210,192.923 163.460 C 194.564 164.398,223.963 164.077,227.742 163.080 C 232.392 161.853,232.317 161.801,231.547 165.692 C 230.925 168.832,230.926 168.942,231.613 170.495 C 232.138 171.681,232.316 172.887,232.316 175.253 L 232.316 178.422 230.969 178.796 C 229.083 179.320,216.084 179.289,214.918 178.757 C 213.944 178.314,213.763 177.763,214.387 177.139 C 214.597 176.929,214.861 175.551,214.972 174.078 L 215.175 171.399 213.961 170.261 L 212.747 169.124 207.938 169.122 L 203.130 169.120 202.067 170.232 C 200.987 171.362,200.753 175.036,201.598 177.580 C 202.048 178.936,200.627 179.174,192.066 179.174 C 180.986 179.174,182.010 180.310,182.959 169.068 C 183.323 164.743,183.158 164.300,180.754 163.163 C 176.616 161.206,180.753 160.758,188.614 162.312 M213.248 171.061 C 214.177 171.902,214.264 174.199,213.444 176.248 C 212.329 179.037,203.964 178.746,202.415 175.865 C 201.643 174.428,202.039 171.439,203.109 170.639 C 204.196 169.825,212.253 170.160,213.248 171.061 M213.279 179.255 C 214.276 180.487,231.934 181.104,233.948 179.977 C 234.561 179.633,237.323 179.921,239.767 180.584 L 241.293 180.997 241.264 182.868 C 241.237 184.643,241.216 184.684,240.851 183.662 C 240.214 181.876,238.128 181.651,229.084 182.393 C 222.488 182.933,196.985 183.146,188.193 182.734 C 179.247 182.314,177.310 182.526,175.967 184.071 C 174.874 185.328,174.357 184.978,174.138 182.836 C 173.873 180.238,176.056 179.392,181.329 180.050 C 185.705 180.596,201.846 180.238,202.641 179.577 C 204.281 178.214,212.241 177.973,213.279 179.255 M236.099 184.196 C 236.898 184.207,236.122 188.339,235.060 189.732 C 233.408 191.898,231.169 193.901,229.370 194.822 C 228.440 195.298,227.340 196.052,226.926 196.497 C 225.616 197.903,189.195 197.793,185.637 196.373 C 182.195 194.998,179.657 191.753,178.928 187.792 C 178.806 187.130,179.048 186.621,179.846 185.858 L 180.930 184.822 203.840 184.703 C 216.441 184.637,228.447 184.440,230.521 184.266 C 232.594 184.091,234.614 184.003,235.009 184.070 C 235.404 184.137,235.895 184.193,236.099 184.196 M189.228 189.179 C 183.046 190.534,186.365 192.439,196.230 193.199 C 199.192 193.427,201.888 193.758,202.221 193.934 C 202.553 194.111,203.590 194.255,204.525 194.255 C 205.460 194.255,207.217 194.428,208.430 194.639 C 212.365 195.324,220.460 194.550,222.546 193.289 C 223.476 192.726,224.560 192.090,224.955 191.875 C 226.630 190.965,226.006 190.421,222.998 190.170 C 221.410 190.038,219.666 189.752,219.122 189.534 C 217.955 189.068,191.187 188.750,189.228 189.179 M215.260 190.572 C 218.536 191.595,205.450 192.455,197.127 191.763 C 190.410 191.204,189.092 191.015,189.454 190.658 C 190.174 189.949,213.021 189.872,215.260 190.572 M149.282 193.794 C 148.739 193.876,147.850 193.876,147.307 193.794 C 146.764 193.712,147.208 193.644,148.294 193.644 C 149.381 193.644,149.825 193.712,149.282 193.794 M170.197 195.746 L 181.508 196.173 183.483 197.279 L 185.458 198.384 206.318 198.384 C 221.149 198.384,227.324 198.268,227.682 197.983 C 229.115 196.843,231.798 196.378,234.508 196.800 C 236.210 197.065,238.323 197.113,240.395 196.933 C 247.642 196.304,264.228 196.157,265.889 196.708 C 266.481 196.905,266.700 197.080,266.376 197.097 C 259.949 197.433,252.304 198.826,251.583 199.792 C 250.129 201.742,214.616 203.499,196.060 202.540 C 190.394 202.247,187.031 202.219,185.847 202.453 C 184.526 202.714,183.667 202.676,182.436 202.303 C 181.531 202.028,180.063 201.795,179.174 201.786 C 178.285 201.777,176.427 201.531,175.045 201.240 C 173.662 200.949,171.885 200.615,171.095 200.498 C 170.305 200.381,168.683 199.906,167.490 199.443 C 166.043 198.881,164.189 198.527,161.924 198.380 C 160.056 198.258,157.801 198.017,156.912 197.844 C 156.023 197.671,154.690 197.432,153.950 197.312 C 152.435 197.068,152.201 196.420,153.411 195.820 C 154.532 195.265,157.187 195.254,170.197 195.746 M145.871 197.028 C 145.229 197.108,144.179 197.108,143.537 197.028 C 142.895 196.948,143.420 196.883,144.704 196.883 C 145.987 196.883,146.513 196.948,145.871 197.028 M277.048 200.317 C 276.974 200.439,276.729 201.226,276.503 202.066 C 275.977 204.028,275.074 204.594,271.810 205.004 C 269.327 205.315,269.091 205.426,267.712 206.914 C 264.282 210.617,260.433 211.965,258.432 210.164 C 257.991 209.767,257.423 209.325,257.171 209.182 C 256.566 208.839,253.075 211.163,252.243 212.463 C 250.850 214.640,250.478 214.802,246.921 214.777 C 242.568 214.746,241.557 215.104,240.140 217.174 C 237.407 221.166,235.437 222.063,232.878 220.481 C 231.193 219.440,231.089 218.866,231.367 212.121 C 231.709 203.828,230.357 204.559,245.422 204.519 L 256.912 204.488 258.342 203.596 C 259.153 203.090,260.629 202.598,261.753 202.460 C 262.843 202.327,265.673 201.964,268.043 201.655 C 270.413 201.345,272.443 201.089,272.553 201.085 C 272.664 201.081,273.107 200.750,273.537 200.349 C 274.974 199.010,277.859 198.984,277.048 200.317 M145.722 200.298 C 147.198 201.320,147.858 201.492,151.526 201.812 C 155.616 202.168,159.670 202.928,162.118 203.796 C 164.259 204.555,181.787 204.741,183.542 204.023 C 185.248 203.325,185.738 205.085,186.020 212.926 C 186.304 220.804,186.564 220.108,183.336 220.108 C 179.466 220.108,176.661 218.544,176.661 216.388 C 176.661 214.948,174.883 214.307,171.602 214.564 C 167.991 214.847,166.190 214.012,163.736 210.918 C 162.248 209.042,159.863 208.694,157.810 210.054 C 156.020 211.239,153.832 210.471,151.167 207.719 C 149.231 205.721,147.733 205.027,145.354 205.027 C 143.079 205.027,142.402 204.643,141.733 202.973 C 141.434 202.226,140.850 201.308,140.433 200.932 C 138.587 199.262,143.393 198.686,145.722 200.298 M159.425 199.883 C 163.015 200.463,156.756 200.929,152.603 200.391 C 150.687 200.143,150.666 200.128,151.885 199.892 C 154.517 199.381,156.308 199.379,159.425 199.883 M201.436 204.275 C 209.464 204.576,224.556 204.386,226.893 203.955 C 228.291 203.697,228.570 203.762,229.330 204.522 L 230.189 205.381 230.098 213.193 C 229.980 223.274,229.621 222.699,236.804 223.930 C 242.322 224.877,243.902 225.072,246.499 225.130 C 249.349 225.193,248.806 225.784,245.859 225.828 C 244.215 225.852,241.168 227.056,239.856 228.200 C 238.039 229.784,189.218 229.817,183.303 228.237 C 182.118 227.921,179.452 227.405,177.379 227.092 C 169.429 225.889,165.363 225.224,165.693 225.180 C 171.771 224.374,178.319 223.101,179.548 222.488 C 181.206 221.661,184.333 221.369,184.949 221.983 C 186.697 223.725,186.420 223.693,202.367 223.933 C 217.666 224.163,224.269 223.772,225.759 222.546 C 227.040 221.493,225.024 221.208,203.518 219.400 C 199.035 219.023,195.046 218.544,194.655 218.334 C 194.263 218.125,192.671 217.953,191.116 217.953 C 186.920 217.953,187.040 218.149,186.927 211.117 C 186.799 203.080,186.608 203.431,190.943 203.753 C 192.863 203.896,197.585 204.130,201.436 204.275 M205.027 221.004 C 217.733 221.578,220.473 221.841,219.530 222.399 C 218.605 222.946,189.422 222.942,188.164 222.395 L 187.280 222.010 188.069 221.588 C 189.241 220.960,193.251 220.136,194.075 220.353 C 194.470 220.457,199.399 220.750,205.027 221.004 M168.043 227.613 C 170.512 227.837,173.420 228.252,174.506 228.535 C 183.742 230.941,248.739 230.829,255.050 228.397 C 256.264 227.929,263.788 227.872,264.070 228.328 C 264.489 229.007,263.161 231.180,261.510 232.516 C 260.561 233.284,259.572 234.202,259.312 234.555 C 259.052 234.909,258.244 235.508,257.517 235.887 C 256.125 236.612,255.099 237.532,253.321 239.653 C 250.918 242.519,250.663 242.729,249.591 242.729 C 246.760 242.729,246.358 242.114,246.012 237.245 C 245.651 232.182,243.726 231.795,229.803 233.983 C 227.926 234.278,225.180 234.658,223.698 234.827 C 209.236 236.484,205.893 236.622,202.459 235.708 C 201.403 235.427,199.408 235.185,198.025 235.171 C 196.643 235.157,194.785 235.009,193.896 234.842 C 193.007 234.676,191.311 234.358,190.126 234.136 C 188.289 233.792,182.720 233.203,174.038 232.435 C 171.624 232.221,170.580 232.976,170.527 234.974 C 170.478 236.835,170.198 238.052,169.403 239.874 L 168.642 241.616 167.597 240.736 C 166.469 239.787,165.998 239.643,163.093 239.356 C 160.931 239.143,159.623 238.362,157.271 235.881 C 156.382 234.943,155.015 233.913,154.232 233.592 C 151.951 232.654,151.526 232.088,151.526 229.987 C 151.526 226.835,154.602 226.393,168.043 227.613 M179.354 233.918 C 181.724 234.203,185.197 234.759,187.074 235.154 C 188.950 235.548,192.168 235.985,194.226 236.124 C 197.410 236.339,202.861 238.034,200.444 238.057 C 199.260 238.068,198.566 240.294,198.565 244.090 C 198.564 247.223,198.454 247.933,197.844 248.758 L 197.124 249.731 184.993 249.731 C 171.971 249.731,171.586 249.680,170.590 247.818 C 170.121 246.942,170.739 242.420,171.677 239.870 C 172.217 238.402,172.339 237.477,172.162 236.187 C 171.784 233.439,172.774 233.126,179.354 233.918 M244.547 234.495 C 244.726 234.778,244.875 236.322,244.878 237.926 C 244.881 239.595,245.115 241.501,245.425 242.379 C 246.520 245.483,246.501 247.436,245.361 248.724 C 244.145 250.098,244.412 250.075,231.235 249.978 L 222.075 249.910 220.701 248.723 L 219.328 247.537 219.581 244.639 C 219.859 241.450,219.455 239.562,218.255 238.444 C 217.076 237.346,221.195 236.011,226.571 235.749 C 228.842 235.639,231.427 235.371,232.316 235.154 C 237.734 233.832,243.917 233.499,244.547 234.495 M216.926 239.492 C 217.921 240.487,217.953 240.633,217.953 244.161 C 217.953 251.323,218.967 251.961,230.700 252.184 C 236.661 252.297,239.040 252.476,240.395 252.913 C 241.382 253.232,242.594 253.517,243.088 253.547 C 248.488 253.873,231.687 254.213,202.727 254.365 L 167.213 254.551 166.219 255.503 L 165.226 256.455 163.582 255.082 C 161.437 253.289,161.477 253.053,164.093 252.074 C 164.785 251.815,166.032 251.277,166.866 250.878 L 168.383 250.152 169.380 251.152 C 170.603 252.378,171.587 252.775,172.531 252.424 C 173.704 251.987,182.809 251.586,190.101 251.649 C 199.089 251.728,200.051 250.977,199.725 244.133 C 199.553 240.546,200.201 239.138,202.023 239.138 C 202.293 239.138,202.513 238.975,202.513 238.775 C 202.513 238.541,204.909 238.420,209.206 238.438 L 215.898 238.464 216.926 239.492 M254.163 253.029 C 254.381 253.418,254.365 253.934,254.121 254.471 L 253.739 255.308 252.916 254.534 C 252.272 253.930,252.171 253.615,252.450 253.092 C 252.896 252.260,253.716 252.229,254.163 253.029 M248.149 255.553 C 249.506 256.354,249.461 256.981,247.932 258.594 C 245.081 261.602,249.050 266.872,255.327 268.410 C 256.970 268.812,258.006 269.279,258.352 269.773 C 258.641 270.185,259.531 270.962,260.331 271.499 C 261.541 272.312,261.674 272.510,261.125 272.684 C 256.361 274.196,143.529 274.194,129.354 272.681 C 126.057 272.329,127.368 271.095,131.039 271.095 C 131.768 271.095,133.243 270.833,134.315 270.514 C 135.441 270.178,137.860 269.895,140.036 269.845 C 142.110 269.797,144.270 269.571,144.836 269.342 C 145.403 269.113,148.236 268.767,151.131 268.572 C 160.630 267.935,163.075 267.603,165.433 266.631 C 166.663 266.124,167.857 265.709,168.087 265.709 C 170.443 265.709,170.911 262.631,169.087 259.126 C 167.132 255.371,163.519 255.700,209.123 255.481 C 229.445 255.383,246.155 255.221,246.256 255.120 C 246.573 254.803,247.073 254.918,248.149 255.553 M190.629 259.760 C 190.540 259.849,188.363 260.115,185.792 260.350 C 181.212 260.768,181.102 260.798,180.354 261.851 C 178.299 264.743,181.590 265.398,198.025 265.371 C 225.082 265.326,241.851 264.068,236.399 262.493 C 235.094 262.116,233.223 261.943,220.646 261.038 C 217.882 260.839,210.287 260.506,203.770 260.298 C 197.253 260.090,191.667 259.847,191.356 259.758 C 191.046 259.670,190.719 259.670,190.629 259.760 M252.537 263.285 C 252.191 263.885,249.910 263.572,249.915 262.926 C 249.930 260.961,250.245 260.762,251.504 261.921 C 252.158 262.524,252.622 263.137,252.537 263.285 M207.361 261.750 C 218.750 262.179,232.354 262.918,232.174 263.098 C 232.098 263.174,230.928 263.289,229.573 263.353 C 228.218 263.418,223.797 263.651,219.749 263.873 C 203.968 264.735,182.226 264.357,181.516 263.208 C 180.546 261.639,190.098 261.100,207.361 261.750 M264.401 265.592 C 266.207 266.148,266.427 266.321,266.427 267.183 C 266.427 268.262,268.302 268.678,270.804 268.155 C 271.534 268.003,272.587 268.107,273.531 268.424 C 274.476 268.741,276.504 268.941,278.782 268.941 C 281.075 268.941,283.049 269.136,283.943 269.452 C 284.933 269.801,287.793 270.025,292.982 270.161 C 301.120 270.373,302.972 270.658,303.687 271.810 C 304.368 272.907,303.716 273.112,295.871 274.265 C 293.102 274.673,290.951 275.983,286.894 279.731 C 282.013 284.241,281.340 284.484,276.571 283.470 C 274.945 283.124,273.334 283.974,271.211 286.297 C 268.989 288.729,267.105 289.176,265.029 287.765 C 263.410 286.665,262.735 286.669,261.617 287.787 C 261.126 288.278,259.960 289.107,259.027 289.628 L 257.330 290.575 253.966 289.942 L 250.601 289.308 249.628 290.166 C 249.093 290.637,248.600 291.147,248.533 291.299 C 247.150 294.400,243.819 291.608,243.440 287.030 C 243.186 283.962,242.447 281.673,241.518 281.076 C 241.302 280.937,231.185 280.825,219.037 280.826 C 206.888 280.827,191.834 280.715,185.584 280.577 L 174.220 280.325 173.323 281.223 C 172.557 281.988,172.386 282.585,172.162 285.278 C 171.959 287.717,171.705 288.722,171.048 289.690 C 170.580 290.380,170.197 291.056,170.197 291.192 C 170.197 292.377,168.381 292.305,167.081 291.068 C 164.925 289.017,162.640 288.571,160.410 289.766 C 158.706 290.679,156.083 289.852,154.213 287.810 C 152.990 286.475,151.687 286.473,150.090 287.803 C 147.989 289.553,143.574 287.916,141.778 284.722 C 140.798 282.978,140.137 282.777,136.313 283.063 C 132.873 283.320,130.728 282.917,129.982 281.872 C 129.411 281.073,125.229 276.827,123.734 275.529 C 123.245 275.104,122.242 274.557,121.506 274.314 C 120.770 274.071,119.447 273.208,118.565 272.395 C 117.683 271.582,116.149 270.573,115.156 270.154 L 113.352 269.391 114.380 268.717 C 115.213 268.171,116.092 268.043,119.015 268.043 C 123.712 268.043,124.791 268.594,125.145 271.173 C 125.315 272.406,125.613 273.061,126.158 273.399 C 129.624 275.543,264.953 275.123,270.438 272.951 C 272.423 272.165,270.712 270.310,267.534 269.802 C 266.719 269.671,265.966 269.424,265.860 269.253 C 265.754 269.081,265.151 268.935,264.521 268.929 C 263.891 268.923,262.487 268.605,261.400 268.223 C 260.314 267.841,258.962 267.523,258.396 267.516 C 255.655 267.485,252.730 265.572,254.309 264.844 C 255.183 264.440,262.398 264.975,264.401 265.592 M173.470 293.675 C 171.344 295.801,175.038 298.501,180.403 298.743 C 188.156 299.093,218.212 298.480,222.621 297.882 C 229.538 296.945,232.849 296.350,233.587 295.914 C 233.974 295.685,234.937 295.280,235.727 295.012 L 237.163 294.526 234.291 294.276 C 232.711 294.138,230.530 293.865,229.443 293.668 C 228.326 293.466,215.917 293.220,200.862 293.101 L 174.255 292.891 173.470 293.675 M210.920 294.480 L 217.774 294.525 214.542 295.006 C 212.765 295.270,208.402 295.648,204.847 295.846 C 201.293 296.044,195.276 296.386,191.478 296.606 C 183.904 297.044,181.366 296.834,177.105 295.418 L 174.686 294.614 178.636 294.388 C 180.808 294.263,187.419 294.223,193.326 294.298 C 199.233 294.373,207.151 294.455,210.920 294.480 M252.147 297.733 C 252.287 298.152,253.057 298.463,255.039 298.901 C 255.606 299.027,256.208 299.494,256.430 299.981 C 256.854 300.912,259.947 302.454,262.172 302.842 C 262.893 302.968,263.671 303.298,263.901 303.575 C 264.742 304.588,262.938 304.889,253.930 305.235 C 249.053 305.423,242.801 305.740,240.036 305.939 C 237.271 306.139,227.657 306.460,218.671 306.652 C 209.686 306.845,200.153 307.062,197.487 307.136 C 194.820 307.209,186.499 307.051,178.995 306.786 C 171.490 306.521,162.199 306.211,158.348 306.098 C 148.537 305.809,140.722 304.949,140.197 304.100 C 139.624 303.172,143.832 301.537,147.284 301.347 C 152.491 301.060,151.571 300.675,145.153 300.457 C 138.331 300.224,130.791 300.815,130.357 301.616 C 129.599 303.012,129.573 304.438,130.291 305.156 C 132.869 307.734,131.317 308.364,126.310 306.771 C 124.905 306.324,124.398 306.309,123.369 306.681 L 122.125 307.131 122.822 308.109 C 123.205 308.647,123.519 309.256,123.519 309.462 C 123.519 309.669,123.882 310.251,124.327 310.757 C 124.771 311.262,125.619 312.313,126.212 313.091 C 127.906 315.317,132.339 316.761,135.633 316.160 C 136.829 315.941,138.674 316.437,141.501 317.734 C 142.374 318.135,143.997 318.710,145.107 319.013 C 147.832 319.755,148.654 321.472,148.654 326.429 C 148.654 328.252,148.809 330.726,149.000 331.927 C 149.190 333.129,149.605 336.050,149.921 338.420 C 150.237 340.790,150.636 343.261,150.807 343.912 C 151.909 348.107,151.409 348.190,117.056 349.541 C 102.235 350.124,98.133 350.406,91.079 351.322 C 88.739 351.626,83.326 352.118,79.050 352.415 C 74.774 352.712,69.013 353.199,66.248 353.497 C 63.483 353.795,61.019 354.038,60.772 354.039 C 59.481 354.041,60.611 354.681,62.567 355.055 C 67.733 356.044,78.409 356.168,174.686 356.357 C 229.785 356.465,284.075 356.634,295.332 356.733 C 377.142 357.449,376.400 357.455,380.489 355.980 C 382.232 355.351,382.770 354.492,381.585 354.229 C 378.067 353.448,373.984 352.863,367.698 352.238 C 363.657 351.836,358.567 351.185,356.387 350.791 C 354.207 350.396,348.707 349.825,344.165 349.520 C 333.326 348.794,329.436 348.480,323.160 347.824 C 312.275 346.686,308.420 346.474,288.869 345.937 C 276.629 345.601,268.621 345.243,268.402 345.023 C 267.094 343.708,268.378 321.005,269.760 321.005 C 270.004 321.005,270.952 320.607,271.867 320.120 C 275.079 318.410,281.383 316.593,283.425 316.789 C 288.179 317.246,292.543 314.452,295.351 309.156 C 295.822 308.268,296.859 306.819,297.655 305.938 C 299.818 303.543,299.527 303.195,294.928 302.682 C 293.175 302.486,290.843 302.166,289.745 301.971 C 288.647 301.776,286.474 301.616,284.916 301.616 C 281.718 301.616,277.700 301.152,272.172 300.144 C 270.099 299.766,266.229 299.291,263.572 299.089 C 259.520 298.782,258.635 298.609,258.082 298.015 C 257.303 297.179,251.876 296.921,252.147 297.733 M267.864 300.887 C 270.076 301.494,274.324 301.989,281.562 302.484 C 289.124 303.002,294.794 303.718,294.794 304.156 C 294.794 304.614,290.086 306.206,287.356 306.671 C 284.489 307.159,284.217 307.708,286.825 307.741 C 292.956 307.819,294.170 309.087,291.370 312.488 C 289.288 315.017,288.514 315.310,283.591 315.437 C 280.052 315.529,279.297 315.662,277.686 316.478 C 276.670 316.993,275.664 317.415,275.451 317.415 C 275.238 317.415,274.373 317.724,273.528 318.101 C 272.684 318.479,271.328 318.964,270.514 319.179 C 267.546 319.963,267.300 320.814,266.980 331.418 C 266.828 336.454,266.594 341.382,266.460 342.370 L 266.216 344.165 265.761 342.011 C 265.511 340.826,265.168 338.725,264.999 337.343 C 264.830 335.961,264.518 333.779,264.306 332.496 C 264.093 331.212,263.916 329.031,263.911 327.648 C 263.906 326.266,263.669 324.165,263.382 322.980 C 263.096 321.795,262.856 319.177,262.849 317.162 C 262.827 310.743,262.446 310.452,254.725 310.942 C 251.638 311.139,242.950 311.396,235.418 311.515 C 224.804 311.682,221.414 311.847,220.349 312.247 C 218.629 312.893,202.009 312.605,196.948 311.841 C 195.134 311.568,189.068 311.263,183.124 311.148 C 177.298 311.035,169.421 310.840,165.619 310.716 L 158.707 310.491 158.707 308.926 C 158.707 308.065,158.869 307.361,159.066 307.361 C 159.264 307.361,159.425 307.684,159.425 308.079 C 159.425 308.506,159.680 308.816,160.054 308.843 C 161.770 308.967,207.674 308.762,212.029 308.611 C 214.794 308.515,220.290 308.353,224.242 308.252 C 228.195 308.150,232.800 307.902,234.476 307.701 C 236.151 307.500,240.269 307.191,243.627 307.014 C 265.006 305.884,266.867 305.572,266.276 303.218 C 266.030 302.236,264.410 301.257,263.034 301.257 C 262.530 301.257,262.118 301.095,262.118 300.898 C 262.118 300.439,266.202 300.432,267.864 300.887 M137.617 302.783 C 137.942 303.030,138.523 303.976,138.907 304.885 C 139.696 306.749,140.305 307.002,144.013 307.002 C 145.572 307.002,146.188 307.151,146.432 307.587 C 146.655 307.986,146.838 308.043,147.009 307.766 C 147.275 307.336,153.869 307.180,154.908 307.579 C 155.791 307.918,155.642 310.190,154.668 311.227 C 153.872 312.076,153.861 312.211,153.956 320.407 C 154.071 330.469,153.595 343.202,153.067 344.145 C 152.357 345.414,150.908 336.024,150.558 327.885 C 150.360 323.282,150.247 322.604,149.495 321.495 C 149.032 320.813,148.654 320.099,148.654 319.907 C 148.654 319.363,146.514 318.192,144.388 317.572 C 143.326 317.262,141.996 316.668,141.433 316.252 C 140.555 315.603,139.697 315.460,135.412 315.250 C 129.789 314.975,128.895 314.644,126.823 312.065 C 124.789 309.534,125.425 308.756,129.595 308.674 C 133.402 308.599,134.057 307.935,132.464 305.768 C 131.209 304.062,131.171 303.625,132.216 302.893 C 133.188 302.212,136.770 302.139,137.617 302.783 M269.045 309.928 C 267.805 311.422,269.398 311.564,277.867 310.714 C 281.457 310.354,279.651 309.808,274.178 309.600 C 270.388 309.455,269.384 309.519,269.045 309.928 M162.837 311.823 C 166.194 311.915,174.354 312.083,180.969 312.196 C 193.711 312.415,194.588 312.465,196.134 313.063 L 197.116 313.443 196.352 314.739 C 195.551 316.096,195.814 335.205,196.663 337.448 C 197.145 338.718,198.093 336.256,198.703 332.156 C 199.345 327.838,200.191 326.766,200.525 329.847 C 200.775 332.152,201.564 334.291,202.164 334.291 C 202.373 334.291,203.386 334.923,204.414 335.696 C 205.753 336.702,206.793 337.171,208.079 337.347 C 212.296 337.926,213.618 338.519,213.284 339.682 C 212.875 341.108,212.615 341.472,212.008 341.472 C 211.723 341.472,211.490 341.634,211.490 341.831 C 211.490 342.029,211.792 342.190,212.161 342.190 C 212.531 342.190,213.864 342.520,215.124 342.922 C 221.736 345.036,222.232 344.015,222.393 327.975 C 222.492 318.093,222.435 316.687,221.872 315.151 C 221.006 312.790,220.477 312.883,236.445 312.590 C 243.950 312.452,252.325 312.195,255.057 312.019 L 260.024 311.699 260.840 312.647 C 261.628 313.564,261.664 313.918,261.912 323.135 C 262.105 330.285,262.342 333.530,262.859 336.086 C 264.079 342.123,263.700 344.905,261.615 345.218 C 261.003 345.310,248.869 345.471,234.650 345.576 C 202.979 345.809,174.051 346.361,168.043 346.846 C 161.143 347.402,155.660 347.553,155.092 347.202 C 153.542 346.244,154.807 310.974,156.371 311.528 C 156.570 311.599,159.479 311.731,162.837 311.823 M220.193 315.214 L 221.094 316.285 221.141 327.534 C 221.191 339.328,221.092 340.142,219.389 341.957 C 218.789 342.596,217.507 341.725,216.844 340.227 C 215.857 337.994,215.622 337.878,208.771 336.211 C 207.572 335.919,206.118 335.272,205.540 334.772 C 204.961 334.273,204.081 333.652,203.582 333.392 C 202.863 333.017,202.577 332.452,202.196 330.643 C 201.057 325.245,200.380 323.020,199.771 322.680 C 198.556 322.000,197.578 320.629,197.358 319.298 C 196.581 314.600,196.847 314.511,212.609 314.253 L 219.292 314.144 220.193 315.214 M271.886 346.497 C 273.525 346.496,278.905 346.656,283.842 346.853 C 288.779 347.049,297.101 347.375,302.334 347.577 C 307.567 347.779,312.980 348.092,314.363 348.272 C 319.596 348.957,325.083 349.407,334.470 349.920 C 343.779 350.429,347.458 350.790,351.346 351.575 C 352.334 351.775,355.485 352.160,358.348 352.430 C 367.172 353.264,374.284 354.046,375.224 354.285 C 376.227 354.539,375.705 354.689,370.916 355.520 C 365.594 356.444,73.968 355.367,73.968 354.423 C 73.968 354.260,76.674 354.014,79.982 353.876 C 88.595 353.517,98.660 352.633,104.238 351.745 C 109.992 350.829,115.729 350.446,132.136 349.880 C 140.925 349.577,152.316 349.101,157.451 348.823 C 162.585 348.544,169.856 348.154,173.609 347.958 C 185.885 347.313,209.099 346.792,231.957 346.647 C 259.278 346.474,262.962 346.368,264.785 345.703 C 266.059 345.238,266.324 345.252,267.550 345.844 C 268.530 346.317,269.733 346.499,271.886 346.497 " stroke="none" fill="#d3354e" fill-rule="evenodd"></path><path id="path2" d="M0.000 179.533 L 0.000 359.066 200.000 359.066 L 400.000 359.066 400.000 179.533 L 400.000 0.000 200.000 0.000 L 0.000 0.000 0.000 179.533 M207.343 29.174 C 208.754 32.579,208.139 39.118,206.405 39.136 C 205.047 39.150,204.220 36.743,204.451 33.452 C 204.797 28.532,206.210 26.442,207.343 29.174 M207.313 56.306 C 207.931 58.510,209.188 60.037,210.772 60.511 C 211.266 60.658,211.765 60.928,211.883 61.109 C 212.000 61.291,213.777 61.588,215.832 61.769 C 227.244 62.772,232.701 63.586,236.114 64.792 C 237.481 65.275,239.650 65.849,240.934 66.066 C 243.804 66.553,245.611 67.095,246.320 67.682 C 246.616 67.928,248.339 68.548,250.148 69.060 C 251.957 69.572,254.704 70.643,256.252 71.440 C 257.800 72.237,259.338 72.889,259.669 72.890 C 260.001 72.890,260.530 73.148,260.845 73.464 C 261.160 73.779,262.828 74.757,264.551 75.638 C 268.745 77.781,272.685 80.086,273.702 80.990 C 274.158 81.396,275.294 82.097,276.225 82.548 C 277.156 82.999,277.917 83.501,277.917 83.665 C 277.917 83.829,278.523 84.335,279.264 84.790 C 280.004 85.245,280.853 85.891,281.149 86.225 C 281.445 86.559,282.657 87.492,283.842 88.298 C 288.044 91.156,301.499 105.081,303.150 108.281 C 303.501 108.960,303.919 109.515,304.079 109.515 C 304.397 109.515,307.756 114.416,309.079 116.809 C 309.530 117.625,310.198 118.620,310.563 119.020 C 310.929 119.421,311.711 120.857,312.301 122.212 C 312.891 123.567,313.617 124.960,313.915 125.308 C 314.212 125.655,314.804 126.871,315.230 128.009 C 315.656 129.146,316.384 130.743,316.849 131.556 C 317.313 132.369,318.058 134.246,318.503 135.727 C 318.948 137.208,319.685 139.147,320.140 140.036 C 320.595 140.925,321.218 143.106,321.523 144.883 C 321.828 146.661,322.420 149.004,322.838 150.090 C 324.548 154.531,325.422 164.586,325.211 177.379 C 325.037 187.883,324.785 190.374,323.265 196.589 C 322.783 198.564,321.995 201.923,321.516 204.054 C 321.036 206.185,320.411 208.285,320.126 208.722 C 319.841 209.158,319.038 211.195,318.341 213.247 C 317.644 215.300,316.846 217.239,316.568 217.556 C 316.290 217.873,315.693 219.183,315.243 220.467 C 314.792 221.750,314.221 223.043,313.974 223.339 C 313.727 223.636,312.861 225.211,312.049 226.840 C 311.238 228.469,310.436 229.803,310.268 229.803 C 310.100 229.803,309.615 230.570,309.189 231.508 C 307.964 234.210,300.883 243.792,297.666 247.101 C 297.172 247.609,296.014 248.812,295.092 249.775 C 291.149 253.894,283.904 260.414,280.576 262.838 C 279.212 263.831,277.614 265.020,277.023 265.481 L 275.950 266.320 277.023 266.869 C 278.672 267.714,285.547 268.242,298.653 268.532 C 311.008 268.806,312.312 268.986,310.507 270.169 C 310.022 270.486,309.446 271.140,309.227 271.622 C 308.499 273.219,305.076 274.137,297.038 274.893 C 295.606 275.028,294.434 275.253,294.434 275.393 C 294.434 275.534,293.586 276.110,292.549 276.674 C 291.513 277.238,289.482 278.839,288.037 280.232 C 283.455 284.649,281.197 285.648,277.754 284.781 C 275.101 284.113,274.652 284.334,271.102 288.061 C 269.066 290.198,266.907 290.445,264.548 288.811 L 263.170 287.856 262.016 288.957 C 261.381 289.563,260.094 290.415,259.156 290.850 C 258.218 291.285,257.451 291.785,257.451 291.961 C 257.451 292.473,256.629 292.333,255.117 291.562 C 252.981 290.473,250.001 290.559,249.558 291.723 C 247.786 296.384,242.213 292.999,242.307 287.318 C 242.399 281.724,242.508 281.767,229.676 282.278 C 219.084 282.700,197.722 282.347,181.349 281.479 C 173.386 281.057,173.841 280.734,173.079 287.352 C 172.446 292.854,169.180 295.060,166.303 291.930 C 164.843 290.342,162.432 289.859,160.607 290.791 C 158.653 291.787,155.881 291.080,154.125 289.138 L 152.954 287.842 151.612 288.493 C 149.178 289.672,146.929 290.123,145.849 289.649 C 143.501 288.619,141.648 286.974,141.264 285.578 C 140.915 284.308,139.365 283.913,135.824 284.193 C 131.482 284.537,130.489 284.097,127.289 280.405 C 125.659 278.524,124.267 277.288,123.301 276.860 C 122.484 276.499,121.714 276.038,121.588 275.835 C 121.463 275.632,120.659 275.126,119.801 274.711 C 118.943 274.296,117.823 273.514,117.312 272.974 C 115.867 271.449,115.446 271.173,113.945 270.769 C 111.778 270.185,111.260 269.637,111.042 267.696 L 110.846 265.957 112.963 266.194 C 114.128 266.324,117.262 266.526,119.928 266.642 C 123.259 266.788,125.225 267.043,126.212 267.459 C 127.452 267.982,131.432 268.194,134.518 267.902 C 136.180 267.745,134.060 263.597,131.307 261.621 C 130.480 261.027,129.156 259.997,128.366 259.333 C 127.576 258.668,126.315 257.609,125.564 256.980 C 124.812 256.350,123.681 255.288,123.050 254.620 C 121.999 253.507,118.848 250.409,117.454 249.118 C 117.136 248.824,116.149 247.723,115.260 246.672 C 114.372 245.621,113.074 244.102,112.376 243.296 C 111.679 242.491,110.665 241.171,110.125 240.365 C 109.584 239.558,108.851 238.587,108.496 238.206 C 107.680 237.330,105.341 233.820,103.991 231.445 C 103.422 230.443,102.607 229.138,102.181 228.546 C 101.187 227.165,97.961 220.565,96.919 217.780 C 96.478 216.600,95.920 215.438,95.680 215.198 C 95.440 214.957,94.955 213.661,94.602 212.318 C 94.250 210.974,93.563 208.986,93.075 207.899 C 92.587 206.813,92.052 205.601,91.886 205.206 C 91.720 204.811,91.251 202.718,90.844 200.555 C 90.437 198.392,89.886 195.968,89.620 195.169 C 87.412 188.549,87.658 155.637,89.941 152.114 C 90.215 151.692,90.700 149.811,91.018 147.935 C 91.572 144.674,92.577 141.243,93.541 139.318 C 93.789 138.824,94.320 137.252,94.722 135.824 C 95.123 134.397,95.770 132.781,96.159 132.234 C 96.549 131.686,97.079 130.512,97.339 129.623 C 97.599 128.734,98.400 127.036,99.119 125.848 C 99.838 124.660,100.627 123.081,100.873 122.338 C 101.118 121.595,101.676 120.547,102.113 120.009 C 102.551 119.471,103.627 117.845,104.506 116.396 C 105.385 114.947,106.427 113.234,106.822 112.591 C 107.217 111.947,108.066 110.825,108.707 110.096 C 109.349 109.368,109.875 108.657,109.876 108.515 C 109.877 108.374,110.327 107.774,110.876 107.181 C 111.425 106.589,112.354 105.469,112.939 104.692 C 116.662 99.753,126.422 90.266,130.295 87.821 C 131.129 87.294,131.904 86.624,132.016 86.331 C 132.129 86.038,132.966 85.361,133.877 84.827 C 134.788 84.293,135.801 83.611,136.128 83.311 C 136.456 83.010,137.561 82.199,138.584 81.508 C 139.608 80.817,140.666 80.048,140.936 79.799 C 141.206 79.551,142.185 79.023,143.112 78.625 C 144.038 78.228,145.273 77.502,145.855 77.013 C 146.437 76.523,147.103 76.122,147.335 76.122 C 148.026 76.121,152.244 74.024,152.244 73.681 C 152.244 73.507,152.931 73.147,153.770 72.881 C 154.610 72.615,156.632 71.781,158.265 71.028 C 159.898 70.275,161.442 69.659,161.695 69.659 C 161.947 69.659,162.308 69.519,162.496 69.349 C 162.683 69.178,163.635 68.845,164.612 68.608 C 165.588 68.371,167.075 67.864,167.917 67.480 C 168.758 67.097,170.706 66.476,172.246 66.100 C 173.785 65.724,177.226 64.850,179.892 64.157 C 183.907 63.114,186.097 62.791,192.639 62.276 C 196.984 61.934,200.781 61.474,201.077 61.255 C 201.373 61.035,202.213 60.553,202.943 60.184 C 204.216 59.540,205.386 57.829,205.386 56.612 C 205.386 53.930,206.593 53.738,207.313 56.306 M197.487 120.632 C 196.203 120.969,194.355 121.599,193.380 122.033 C 192.298 122.513,190.268 122.954,188.173 123.162 C 186.285 123.351,183.727 123.700,182.488 123.938 L 180.237 124.372 181.879 124.995 C 186.801 126.864,203.065 127.983,215.978 127.342 C 225.250 126.882,226.096 126.757,227.693 125.599 C 229.513 124.281,229.672 124.388,224.627 123.539 C 221.627 123.034,219.918 122.548,218.761 121.869 C 215.255 119.815,203.257 119.117,197.487 120.632 M254.246 123.097 C 250.484 124.663,251.508 126.231,255.951 125.708 C 259.086 125.338,259.637 124.705,258.118 123.219 C 256.754 121.886,257.128 121.898,254.246 123.097 M158.553 126.823 C 157.743 127.979,158.695 128.366,161.265 127.925 L 163.196 127.594 161.580 127.137 C 160.691 126.886,159.777 126.527,159.548 126.339 C 159.265 126.108,158.945 126.263,158.553 126.823 M192.773 134.166 C 192.415 134.597,192.215 136.595,192.043 141.437 C 191.767 149.186,191.657 149.773,190.332 150.555 C 189.157 151.249,183.312 152.603,181.491 152.603 C 180.728 152.603,180.299 152.749,180.431 152.962 C 180.553 153.160,180.902 153.321,181.206 153.321 C 182.131 153.321,184.201 154.450,184.201 154.954 C 184.201 156.478,220.435 157.639,230.292 156.430 L 232.757 156.128 231.728 155.514 C 231.163 155.176,230.135 154.684,229.443 154.420 C 228.752 154.156,227.935 153.661,227.628 153.318 C 227.321 152.976,226.674 152.571,226.192 152.418 C 223.106 151.442,222.824 150.428,223.150 141.496 C 223.379 135.236,223.342 134.381,222.829 133.955 C 222.303 133.519,207.971 134.016,207.146 134.499 C 207.028 134.568,204.200 134.391,200.862 134.106 C 193.246 133.455,193.364 133.454,192.773 134.166 M168.040 156.369 C 168.488 156.910,169.120 156.795,169.120 156.173 C 169.120 155.987,168.777 155.835,168.358 155.835 C 167.724 155.835,167.671 155.925,168.040 156.369 M170.751 158.684 C 170.355 159.323,170.713 159.511,172.684 159.701 C 174.784 159.903,176.572 159.552,176.059 159.039 C 175.496 158.476,171.062 158.180,170.751 158.684 M180.072 161.459 C 178.634 161.841,178.792 162.235,180.754 163.163 C 183.158 164.300,183.323 164.743,182.959 169.068 C 182.010 180.310,180.986 179.174,192.066 179.174 C 200.627 179.174,202.048 178.936,201.598 177.580 C 200.753 175.036,200.987 171.362,202.067 170.232 L 203.130 169.120 207.938 169.122 L 212.747 169.124 213.961 170.261 L 215.175 171.399 214.972 174.078 C 214.861 175.551,214.597 176.929,214.387 177.139 C 213.763 177.763,213.944 178.314,214.918 178.757 C 216.084 179.289,229.083 179.320,230.969 178.796 L 232.316 178.422 232.316 175.253 C 232.316 172.887,232.138 171.681,231.613 170.495 C 230.926 168.942,230.925 168.832,231.547 165.692 C 232.317 161.801,232.392 161.853,227.742 163.080 C 223.963 164.077,194.564 164.398,192.923 163.460 C 191.233 162.494,181.739 161.016,180.072 161.459 M230.521 184.266 C 228.447 184.440,216.441 184.637,203.840 184.703 L 180.930 184.822 179.846 185.858 C 178.626 187.024,178.626 187.465,179.846 190.664 C 180.503 192.390,182.167 194.367,184.022 195.627 C 186.190 197.100,193.303 197.542,212.637 197.404 C 226.161 197.307,226.172 197.306,226.926 196.497 C 227.340 196.052,228.440 195.298,229.370 194.822 C 231.169 193.901,233.408 191.898,235.060 189.732 C 236.122 188.339,236.898 184.207,236.099 184.196 C 235.895 184.193,235.404 184.137,235.009 184.070 C 234.614 184.003,232.594 184.091,230.521 184.266 M219.122 189.534 C 219.666 189.752,221.410 190.038,222.998 190.170 C 226.006 190.421,226.630 190.965,224.955 191.875 C 224.560 192.090,223.476 192.726,222.546 193.289 C 220.460 194.550,212.365 195.324,208.430 194.639 C 207.217 194.428,205.460 194.255,204.525 194.255 C 203.590 194.255,202.553 194.111,202.221 193.934 C 201.888 193.758,199.192 193.427,196.230 193.199 C 188.992 192.642,186.355 191.953,186.355 190.621 C 186.355 190.206,187.760 189.500,189.228 189.179 C 191.187 188.750,217.955 189.068,219.122 189.534 M143.537 197.028 C 144.179 197.108,145.229 197.108,145.871 197.028 C 146.513 196.948,145.987 196.883,144.704 196.883 C 143.420 196.883,142.895 196.948,143.537 197.028 M154.399 199.542 C 151.095 199.821,150.474 200.116,152.603 200.391 C 156.756 200.929,163.015 200.463,159.425 199.883 C 157.292 199.538,155.709 199.431,154.399 199.542 M187.142 204.350 C 186.972 204.821,186.876 207.866,186.927 211.117 C 187.040 218.149,186.920 217.953,191.116 217.953 C 192.671 217.953,194.263 218.125,194.655 218.334 C 195.046 218.544,199.035 219.023,203.518 219.400 C 225.024 221.208,227.040 221.493,225.759 222.546 C 224.269 223.772,217.666 224.163,202.367 223.933 C 186.420 223.693,186.697 223.725,184.949 221.983 C 184.333 221.369,181.206 221.661,179.548 222.488 C 178.319 223.101,171.771 224.374,165.693 225.180 C 165.363 225.224,169.429 225.889,177.379 227.092 C 179.452 227.405,182.118 227.921,183.303 228.237 C 189.218 229.817,238.039 229.784,239.856 228.200 C 241.168 227.056,244.215 225.852,245.859 225.828 C 248.806 225.784,249.349 225.193,246.499 225.130 C 243.902 225.072,242.322 224.877,236.804 223.930 C 229.621 222.699,229.980 223.274,230.098 213.193 L 230.189 205.381 229.330 204.522 C 228.570 203.762,228.291 203.697,226.893 203.955 C 223.076 204.659,201.518 204.538,190.943 203.753 C 187.485 203.496,187.449 203.502,187.142 204.350 M173.126 233.943 C 171.945 234.456,171.929 234.494,172.162 236.187 C 172.339 237.477,172.217 238.402,171.677 239.870 C 170.739 242.420,170.121 246.942,170.590 247.818 C 171.586 249.680,171.971 249.731,184.993 249.731 L 197.124 249.731 197.844 248.758 C 198.454 247.933,198.564 247.223,198.565 244.090 C 198.566 240.294,199.260 238.068,200.444 238.057 C 202.861 238.034,197.410 236.339,194.226 236.124 C 192.168 235.985,188.950 235.548,187.074 235.154 C 184.193 234.548,175.858 233.375,174.686 233.410 C 174.488 233.416,173.786 233.656,173.126 233.943 M236.984 234.283 C 235.305 234.545,233.205 234.937,232.316 235.154 C 231.427 235.371,228.842 235.639,226.571 235.749 C 221.195 236.011,217.076 237.346,218.255 238.444 C 219.455 239.562,219.859 241.450,219.581 244.639 L 219.328 247.537 220.701 248.723 L 222.075 249.910 231.235 249.978 C 244.412 250.075,244.145 250.098,245.361 248.724 C 246.501 247.436,246.520 245.483,245.425 242.379 C 245.115 241.501,244.881 239.595,244.878 237.926 C 244.870 233.602,243.978 233.191,236.984 234.283 M246.256 255.120 C 246.155 255.221,229.445 255.383,209.123 255.481 C 163.519 255.700,167.132 255.371,169.087 259.126 C 170.911 262.631,170.443 265.709,168.087 265.709 C 167.857 265.709,166.663 266.124,165.433 266.631 C 163.075 267.603,160.630 267.935,151.131 268.572 C 148.236 268.767,145.403 269.113,144.836 269.342 C 144.270 269.571,142.110 269.797,140.036 269.845 C 137.860 269.895,135.441 270.178,134.315 270.514 C 133.243 270.833,131.768 271.095,131.039 271.095 C 127.368 271.095,126.057 272.329,129.354 272.681 C 143.529 274.194,256.361 274.196,261.125 272.684 C 261.674 272.510,261.541 272.312,260.331 271.499 C 259.531 270.962,258.641 270.185,258.352 269.773 C 258.006 269.279,256.970 268.812,255.327 268.410 C 249.050 266.872,245.081 261.602,247.932 258.594 C 248.622 257.866,249.187 257.023,249.189 256.720 C 249.194 255.886,246.797 254.579,246.256 255.120 M203.770 260.298 C 210.287 260.506,217.882 260.839,220.646 261.038 C 233.223 261.943,235.094 262.116,236.399 262.493 C 241.851 264.068,225.082 265.326,198.025 265.371 C 181.590 265.398,178.299 264.743,180.354 261.851 C 181.102 260.798,181.212 260.768,185.792 260.350 C 188.363 260.115,190.540 259.849,190.629 259.760 C 190.719 259.670,191.046 259.670,191.356 259.758 C 191.667 259.847,197.253 260.090,203.770 260.298 M229.443 293.668 C 230.530 293.865,232.711 294.138,234.291 294.276 L 237.163 294.526 235.727 295.012 C 234.937 295.280,233.974 295.685,233.587 295.914 C 232.849 296.350,229.538 296.945,222.621 297.882 C 218.212 298.480,188.156 299.093,180.403 298.743 C 175.038 298.501,171.344 295.801,173.470 293.675 L 174.255 292.891 200.862 293.101 C 215.917 293.220,228.326 293.466,229.443 293.668 M258.082 298.015 C 258.635 298.609,259.520 298.782,263.572 299.089 C 266.229 299.291,270.099 299.766,272.172 300.144 C 277.700 301.152,281.718 301.616,284.916 301.616 C 286.474 301.616,288.647 301.776,289.745 301.971 C 290.843 302.166,293.175 302.486,294.928 302.682 C 299.527 303.195,299.818 303.543,297.655 305.938 C 296.859 306.819,295.822 308.268,295.351 309.156 C 292.543 314.452,288.179 317.246,283.425 316.789 C 281.383 316.593,275.079 318.410,271.867 320.120 C 270.952 320.607,270.004 321.005,269.760 321.005 C 268.378 321.005,267.094 343.708,268.402 345.023 C 268.621 345.243,276.629 345.601,288.869 345.937 C 308.420 346.474,312.275 346.686,323.160 347.824 C 329.436 348.480,333.326 348.794,344.165 349.520 C 348.707 349.825,354.207 350.396,356.387 350.791 C 358.567 351.185,363.657 351.836,367.698 352.238 C 373.984 352.863,378.067 353.448,381.585 354.229 C 382.770 354.492,382.232 355.351,380.489 355.980 C 376.400 357.455,377.142 357.449,295.332 356.733 C 284.075 356.634,229.785 356.465,174.686 356.357 C 78.409 356.168,67.733 356.044,62.567 355.055 C 60.611 354.681,59.481 354.041,60.772 354.039 C 61.019 354.038,63.483 353.795,66.248 353.497 C 69.013 353.199,74.774 352.712,79.050 352.415 C 83.326 352.118,88.739 351.626,91.079 351.322 C 98.133 350.406,102.235 350.124,117.056 349.541 C 151.409 348.190,151.909 348.107,150.807 343.912 C 150.636 343.261,150.237 340.790,149.921 338.420 C 149.605 336.050,149.190 333.129,149.000 331.927 C 148.809 330.726,148.654 328.252,148.654 326.429 C 148.654 321.472,147.832 319.755,145.107 319.013 C 143.997 318.710,142.374 318.135,141.501 317.734 C 138.674 316.437,136.829 315.941,135.633 316.160 C 132.339 316.761,127.906 315.317,126.212 313.091 C 125.619 312.313,124.771 311.262,124.327 310.757 C 123.882 310.251,123.519 309.669,123.519 309.462 C 123.519 309.256,123.205 308.647,122.822 308.109 L 122.125 307.131 123.369 306.681 C 124.398 306.309,124.905 306.324,126.310 306.771 C 131.317 308.364,132.869 307.734,130.291 305.156 C 129.573 304.438,129.599 303.012,130.357 301.616 C 130.791 300.815,138.331 300.224,145.153 300.457 C 151.571 300.675,152.491 301.060,147.284 301.347 C 143.832 301.537,139.624 303.172,140.197 304.100 C 140.722 304.949,148.537 305.809,158.348 306.098 C 162.199 306.211,171.490 306.521,178.995 306.786 C 186.499 307.051,194.820 307.209,197.487 307.136 C 200.153 307.062,209.686 306.845,218.671 306.652 C 227.657 306.460,237.271 306.139,240.036 305.939 C 242.801 305.740,249.053 305.423,253.930 305.235 C 262.938 304.889,264.742 304.588,263.901 303.575 C 263.671 303.298,262.893 302.968,262.172 302.842 C 259.947 302.454,256.854 300.912,256.430 299.981 C 256.208 299.494,255.606 299.027,255.039 298.901 C 251.208 298.055,251.055 297.307,254.714 297.307 C 256.947 297.307,257.538 297.431,258.082 298.015 M155.423 312.180 C 154.584 313.292,154.268 346.693,155.092 347.202 C 155.660 347.553,161.143 347.402,168.043 346.846 C 174.051 346.361,202.979 345.809,234.650 345.576 C 248.869 345.471,261.003 345.310,261.615 345.218 C 263.700 344.905,264.079 342.123,262.859 336.086 C 262.342 333.530,262.105 330.285,261.912 323.135 C 261.664 313.918,261.628 313.564,260.840 312.647 L 260.024 311.699 255.057 312.019 C 252.325 312.195,243.950 312.452,236.445 312.590 C 220.477 312.883,221.006 312.790,221.872 315.151 C 222.435 316.687,222.492 318.093,222.393 327.975 C 222.232 344.015,221.736 345.036,215.124 342.922 C 213.864 342.520,212.531 342.190,212.161 342.190 C 211.792 342.190,211.490 342.029,211.490 341.831 C 211.490 341.634,211.723 341.472,212.008 341.472 C 212.615 341.472,212.875 341.108,213.284 339.682 C 213.618 338.519,212.296 337.926,208.079 337.347 C 206.793 337.171,205.753 336.702,204.414 335.696 C 203.386 334.923,202.373 334.291,202.164 334.291 C 201.564 334.291,200.775 332.152,200.525 329.847 C 200.191 326.766,199.345 327.838,198.703 332.156 C 198.093 336.256,197.145 338.718,196.663 337.448 C 195.814 335.205,195.551 316.096,196.352 314.739 L 197.116 313.443 196.134 313.063 C 194.588 312.465,193.711 312.415,180.969 312.196 C 165.789 311.936,156.835 311.693,156.371 311.528 C 156.173 311.458,155.746 311.751,155.423 312.180 " stroke="none" fill="#fbfafa" fill-rule="evenodd"></path></g></svg>